<?xml version="1.0" encoding="utf-8"?>
<!-- Generator: Adobe Illustrator 24.1.0, SVG Export Plug-In . SVG Version: 6.00 Build 0)  -->
<svg version="1.1" id="Layer_1" xmlns="http://www.w3.org/2000/svg" xmlns:xlink="http://www.w3.org/1999/xlink" x="0px" y="0px"
	 viewBox="0 0 2000 2000" style="enable-background:new 0 0 2000 2000;" xml:space="preserve"  width="50px" height="39px">
<style type="text/css">
	.st0{fill:url(#SVGID_1_);}
</style>
<linearGradient id="SVGID_1_" gradientUnits="userSpaceOnUse" x1="129.8315" y1="71.2828" x2="2216.5305" y2="2766.1655">
	<stop  offset="0" style="stop-color:#B6E23B"/>
	<stop  offset="1" style="stop-color:#13914C"/>
</linearGradient>
<path class="st0" d="M1453.83,1454.98c0-8.5,0-13.33,0-18.15c0.03-214.99,0.69-429.98-0.19-644.97
	c-0.42-102.18-35.38-193.3-98.62-272.88c-64.94-81.72-148.23-136.64-250.66-159.56c-138.96-31.1-266.64-4.67-379.85,82.18
	c-95.84,73.52-152.01,172.03-172.48,290.69c-4.01,23.26-5.2,47.26-5.22,70.93c-0.32,324.47-0.31,648.93-0.04,973.4
	c0.03,36.67-7.4,70.31-30.45,99.74c-32.24,41.17-90.38,61.5-140.83,47.21c-56.35-15.96-91.11-52.87-101.88-110.92
	c-2.24-12.05-2.85-24.55-2.85-36.85c-0.09-326.45-1.67-652.91,0.74-979.34c1.3-176.21,61.25-332.94,176.02-467.54
	C551.33,207.15,681.2,127.35,837.05,90.54C904.14,74.69,972.05,69,1041.15,73c152.32,8.82,288.2,60.69,407.53,154.73
	c135.44,106.73,222.34,245.06,262.21,412.98c14.11,59.44,18.89,119.68,18.86,180.56c-0.13,320.5-0.17,641.01,0.08,961.51
	c0.04,56.17-22.31,99.56-70.99,127.78c-52.83,30.62-119.72,20.52-163.39-23.17c-99.1-99.13-197.87-198.6-297.42-297.28
	c-82.65-81.92-166.43-162.69-249.29-244.4c-38.33-37.79-54.31-83.48-40.3-136.45c14.06-53.14,49.17-87.17,102.59-99.83
	c49.55-11.74,92.9,2.75,128.95,38.06c101.19,99.11,202.07,198.53,303.09,297.81C1445.5,1447.69,1448.12,1449.86,1453.83,1454.98z
	 M999.67,938.6c84.61,0.96,157.94-71.17,158.13-155.55c0.2-88.17-69.79-159.75-156.3-159.84c-86.93-0.09-158.04,70.31-158.15,156.57
	C843.24,866.54,913.19,937.62,999.67,938.6z"/>
</svg>
